<svg width="16" height="16" viewBox="0 0 16 16" fill="none" xmlns="http://www.w3.org/2000/svg">
<g clip-path="url(#clip0_63_101)">
<mask id="mask0_63_101" style="mask-type:luminance" maskUnits="userSpaceOnUse" x="0" y="0" width="16" height="16">
<path d="M16 0H0V16H16V0Z" fill="white"/>
</mask>
<g mask="url(#mask0_63_101)">
<path fill-rule="evenodd" clip-rule="evenodd" d="M5.87384 10.5001H6.83362V12.6667C6.83362 12.8047 6.88245 12.9226 6.98004 13.0202C7.0777 13.1179 7.19556 13.1667 7.33362 13.1667H10.7932L11.6467 14.0202C11.6936 14.0671 11.7477 14.1032 11.809 14.1286C11.8702 14.154 11.934 14.1667 12.0003 14.1667C12.0666 14.1667 12.1304 14.154 12.1917 14.1286C12.2529 14.1032 12.3069 14.0671 12.3538 14.0202L13.2074 13.1667H14.6669C14.805 13.1667 14.9229 13.1179 15.0205 13.0202C15.1181 12.9226 15.1669 12.8047 15.1669 12.6667V7.33338C15.1669 7.19531 15.1181 7.07745 15.0205 6.97983C14.9229 6.8822 14.805 6.83338 14.6669 6.83338H12.5001V2.00012C12.5001 1.86206 12.4512 1.7442 12.3536 1.64658C12.256 1.54895 12.1381 1.50012 12.0001 1.50012H1.33337C1.19531 1.50012 1.07745 1.54895 0.979797 1.64658C0.882202 1.7442 0.833374 1.86206 0.833374 2.00012V10.0001C0.833374 10.1381 0.882202 10.256 0.979797 10.3536C1.07745 10.4513 1.19531 10.5001 1.33337 10.5001H2.79291L3.9798 11.687C4.02673 11.7338 4.08075 11.77 4.14203 11.7954C4.20331 11.8207 4.26709 11.8334 4.33337 11.8334C4.39966 11.8334 4.46344 11.8207 4.52472 11.7954C4.586 11.77 4.64001 11.7338 4.68695 11.687L5.87384 10.5001ZM5.66669 9.50012H7.32458L7.33362 9.50003H11.5001V2.50012H1.83337V9.50012H3.00006C3.06635 9.50012 3.13013 9.51282 3.19141 9.53818C3.25262 9.56357 3.3067 9.59967 3.35358 9.64658L4.33337 10.6263L5.31317 9.64658C5.36005 9.59967 5.41412 9.56357 5.47534 9.53818C5.53662 9.51282 5.6004 9.50012 5.66669 9.50012ZM3.49988 5.99979C3.49988 6.27979 3.71985 6.49979 3.99988 6.49979H4.33325C4.61328 6.49979 4.83325 6.27979 4.83325 5.99979C4.83325 5.71979 4.61328 5.49979 4.33325 5.49979H3.99988C3.71985 5.49979 3.49988 5.71979 3.49988 5.99979ZM5.83337 5.99979C5.83337 6.27979 6.05334 6.49979 6.33337 6.49979H6.66656C6.94659 6.49979 7.16656 6.27979 7.16656 5.99979C7.16656 5.71979 6.94659 5.49979 6.66656 5.49979H6.33337C6.05334 5.49979 5.83337 5.71979 5.83337 5.99979ZM8.66638 6.49979C8.38635 6.49979 8.16638 6.27979 8.16638 5.99979C8.16638 5.71979 8.38635 5.49979 8.66638 5.49979H8.99976C9.27979 5.49979 9.49976 5.71979 9.49976 5.99979C9.49976 6.27979 9.27979 6.49979 8.99976 6.49979H8.66638ZM12.1616 10.4733L12.1631 10.4727C12.264 10.438 12.3454 10.3772 12.4073 10.2903C12.4693 10.2035 12.5003 10.1067 12.5003 10V7.83338H14.1669V12.1667H13.0003C12.934 12.1667 12.8702 12.1793 12.809 12.2047C12.7477 12.2301 12.6936 12.2662 12.6467 12.3131L12.0003 12.9596L11.3538 12.3131C11.3069 12.2662 11.2529 12.2301 11.1917 12.2047C11.1304 12.1793 11.0666 12.1667 11.0003 12.1667H7.83362V10.5001H12.0001C12.0275 10.5001 12.0548 10.4978 12.082 10.4933C12.1091 10.4888 12.1356 10.4821 12.1616 10.4733Z" fill="#0C0C0D"/>
</g>
</g>
<defs>
<clipPath id="clip0_63_101">
<rect width="16" height="16" fill="white"/>
</clipPath>
</defs>
</svg>
